<svg id="Capa_2" data-name="Capa 2" xmlns="http://www.w3.org/2000/svg" viewBox="0 0 98.4 23.71"><defs><style>.cls-1{fill:#f1891d;}.cls-2{fill:#fff;}</style></defs><title>fxs_logo</title><g id="Capa_1" data-name="Capa 1"><polygon id="T" class="cls-1" points="94.7 3 94.7 23.6 91 23.6 91 3 87.4 3 87.4 0.1 98.4 0.1 98.4 3 94.7 3"/><polygon id="E" class="cls-1" points="74.5 23.6 74.5 0.1 85.6 0.1 85.6 3 78.2 3 78.2 9.9 82.8 9.9 82.8 12.8 78.2 12.8 78.2 20.7 85.6 20.7 85.6 23.6 74.5 23.6"/><polygon id="E-2" data-name="E" class="cls-1" points="61.5 23.6 61.5 0.1 72.6 0.1 72.6 3 65.2 3 65.2 9.9 69.9 9.9 69.9 12.8 65.2 12.8 65.2 20.7 72.6 20.7 72.6 23.6 61.5 23.6"/><g id="R"><path class="cls-1" d="M52.6,12.2h2.2c1.1,0,1.5-.5,1.5-1.7V5.4a1.32,1.32,0,0,0-1.5-1.6H52.6v8.4ZM48.9,0.9h7c2.7,0,4.1,1.3,4.1,4v5.8q0,3.15-2.1,3.9l2.5,9.8H56.9l-2.3-9.5h-2v9.5H48.9V0.9Z" transform="translate(-0.4 -0.8)"/></g><polygon id="T-2" data-name="T" class="cls-1" points="43.2 3 43.2 23.6 39.5 23.6 39.5 3 35.8 3 35.8 0.1 46.9 0.1 46.9 3 43.2 3"/><g id="S"><path class="cls-1" d="M31.4,6.8V5.2a1.23,1.23,0,0,0-1.5-1.3H29.3a1.26,1.26,0,0,0-1.5,1.4V9a1.49,1.49,0,0,0,.3,1,2.89,2.89,0,0,0,1,.6l3.4,1.6a15.12,15.12,0,0,1,1.6.9,1.78,1.78,0,0,1,.7.8,3.42,3.42,0,0,1,.3,1.7v5c0,2.6-1.5,4-4.4,3.9H28.5c-2.9,0-4.4-1.5-4.3-4.4V18.5h3.7v1.6c0,0.9.5,1.3,1.6,1.4h0.6a1.16,1.16,0,0,0,1.4-1.3v-4a1.22,1.22,0,0,0-.3-0.9,2.89,2.89,0,0,0-1-.6L26.6,13a15.12,15.12,0,0,1-1.6-.9,2,2,0,0,1-.7-0.9,6.05,6.05,0,0,1-.2-1.5V4.9c0-2.7,1.5-4,4.4-4h2.3c2.9,0,4.4,1.4,4.3,4.1V6.9Z" transform="translate(-0.4 -0.8)"/></g><polygon id="X" class="cls-2" points="22.4 23.4 18.9 23.4 17 14.5 16.9 14.5 14.7 23.4 11.4 23.4 14.7 11.6 11.4 0 14.8 0 16.9 8.7 17 8.7 19.2 0 22.4 0 19.4 11.6 22.4 23.4"/><polygon id="F" class="cls-2" points="8.2 9.8 8.2 12.7 3.7 12.7 3.7 23.4 0 23.4 0 0 9.5 0 10.4 3 3.7 3 3.7 9.8 8.2 9.8"/></g></svg>