<?xml version="1.0" encoding="utf-8"?>
<!-- Generator: Adobe Illustrator 20.0.0, SVG Export Plug-In . SVG Version: 6.00 Build 0)  -->
<svg version="1.1" id="Capa_2" xmlns="http://www.w3.org/2000/svg" xmlns:xlink="http://www.w3.org/1999/xlink" x="0px" y="0px"
	 viewBox="0 0 98.4 23.7" style="enable-background:new 0 0 98.4 23.7;" xml:space="preserve">
<style type="text/css">
	.st0{fill:#F1891D;}
	.st1{fill:#FFFFFF;}
</style>
<title>fxs_logo</title>
<g id="Capa_1">
	<polygon id="T" class="st0" points="94.7,3 94.7,23.6 91,23.6 91,3 87.4,3 87.4,0.1 98.4,0.1 98.4,3 	"/>
	<polygon id="E" class="st0" points="74.5,23.6 74.5,0.1 85.6,0.1 85.6,3 78.2,3 78.2,9.9 82.8,9.9 82.8,12.8 78.2,12.8 78.2,20.7 
		85.6,20.7 85.6,23.6 	"/>
	<polygon id="E-2" class="st0" points="61.5,23.6 61.5,0.1 72.6,0.1 72.6,3 65.2,3 65.2,9.9 69.9,9.9 69.9,12.8 65.2,12.8 
		65.2,20.7 72.6,20.7 72.6,23.6 	"/>
	<g id="R">
		<path class="st0" d="M52.2,11.4h2.2c1.1,0,1.5-0.5,1.5-1.7V4.6c0.2-0.7-0.3-1.4-1-1.6c-0.2,0-0.3,0-0.5,0h-2.2V11.4z M48.5,0.1h7
			c2.7,0,4.1,1.3,4.1,4v5.8c0,2.1-0.7,3.4-2.1,3.9l2.5,9.8h-3.5l-2.3-9.5h-2v9.5h-3.7V0.1z"/>
	</g>
	<polygon id="T-2" class="st0" points="43.2,3 43.2,23.6 39.5,23.6 39.5,3 35.8,3 35.8,0.1 46.9,0.1 46.9,3 	"/>
	<g id="S">
		<path class="st0" d="M31,6V4.4c0.1-0.7-0.4-1.3-1.1-1.3c-0.1,0-0.3,0-0.4,0h-0.6c-0.7-0.1-1.3,0.3-1.5,1c0,0.1,0,0.3,0,0.4v3.7
			c0,0.4,0.1,0.7,0.3,1c0.3,0.3,0.6,0.5,1,0.6l3.4,1.6c0.6,0.3,1.1,0.6,1.6,0.9c0.3,0.2,0.6,0.5,0.7,0.8c0.2,0.5,0.3,1.1,0.3,1.7v5
			c0,2.6-1.5,4-4.4,3.9h-2.2c-2.9,0-4.4-1.5-4.3-4.4v-1.6h3.7v1.6c0,0.9,0.5,1.3,1.6,1.4h0.6c0.6,0.1,1.2-0.3,1.4-0.9
			c0-0.1,0-0.3,0-0.4v-4c0-0.3-0.1-0.7-0.3-0.9c-0.3-0.3-0.6-0.5-1-0.6l-3.6-1.7c-0.6-0.3-1.1-0.6-1.6-0.9c-0.3-0.2-0.6-0.5-0.7-0.9
			c-0.1-0.5-0.2-1-0.2-1.5V4.1c0-2.7,1.5-4,4.4-4h2.3c2.9,0,4.4,1.4,4.3,4.1v1.9L31,6z"/>
	</g>
	<polygon id="X" class="st1" points="22.4,23.4 18.9,23.4 17,14.5 16.9,14.5 14.7,23.4 11.4,23.4 14.7,11.6 11.4,0 14.8,0 16.9,8.7 
		17,8.7 19.2,0 22.4,0 19.4,11.6 	"/>
	<polygon id="F" class="st1" points="8.2,9.8 8.2,12.7 3.7,12.7 3.7,23.4 0,23.4 0,0 9.5,0 10.4,3 3.7,3 3.7,9.8 	"/>
</g>
</svg>
