<?xml version="1.0" encoding="utf-8"?>
<!-- Generator: Adobe Illustrator 19.1.0, SVG Export Plug-In . SVG Version: 6.00 Build 0)  -->
<svg version="1.1" id="Capa_1" xmlns="http://www.w3.org/2000/svg" xmlns:xlink="http://www.w3.org/1999/xlink" x="0px" y="0px"
	 viewBox="0 0 196.9 47.1" enable-background="new 0 0 196.9 47.1" xml:space="preserve">
<g>
	<polygon id="T_2_" fill="#FA9900" points="189.5,5.9 189.5,47.1 182.1,47.1 182.1,5.9 174.7,5.9 174.7,0.1 196.9,0.1 196.9,5.9 	
		"/>
	<polygon id="E_2_" fill="#FA9900" points="149.1,47.1 149.1,0.1 171.3,0.1 171.3,5.9 156.5,5.9 156.5,19.7 165.7,19.7 165.7,25.6 
		156.5,25.6 156.5,41.3 171.3,41.3 171.3,47.1 	"/>
	<polygon id="E_1_" fill="#FA9900" points="123.2,47.1 123.2,0.1 145.4,0.1 145.4,5.9 130.6,5.9 130.6,19.7 139.9,19.7 139.9,25.6 
		130.6,25.6 130.6,41.3 145.4,41.3 145.4,47.1 	"/>
	<g id="R_1_">
		<path fill="#FA9900" d="M104.4,22.7h4.4c2.1,0,3-1.1,3-3.4l0-10.3c0-2.3-0.8-3.2-3-3.2h-4.5V22.7z M97,0.1h14
			c5.5,0,8.2,2.7,8.2,8.1v11.6c0,4.1-1.4,6.7-4.2,7.8l5,19.6h-6.8l-4.7-19h-4.1v19l-7.4,0V0.1z"/>
	</g>
	<polygon id="T_1_" fill="#FA9900" points="86.5,5.9 86.5,47.1 79.1,47.1 79.1,5.9 71.7,5.9 71.7,0.1 93.9,0.1 93.9,5.9 	"/>
	<g id="S_4_">
		<path fill="#FA9900" d="M62.1,11.8l0-3.2c0-1.9-1-2.7-3.1-2.7l-1.1,0c-2.1,0-3.1,0.9-3.1,2.8l-0.1,7.5c0,0.9,0.1,1.6,0.5,1.9
			c0.4,0.3,1.1,0.7,2,1.2l6.9,3.3c1.5,0.8,2.6,1.3,3.2,1.8c0.6,0.4,1.1,0.9,1.5,1.5c0.3,0.6,0.5,1.7,0.5,3.4l-0.1,10
			c0,5.3-3,7.9-8.9,7.9l-4.5,0c-5.8-0.1-8.7-3-8.7-8.7l0-3.1l7.3,0.1l0,3.2c0,1.8,1,2.7,3.2,2.7l1.3,0c1.9,0,2.8-0.7,2.9-2.6l0.1-8
			c0-0.9-0.1-1.4-0.5-1.8c-0.4-0.3-1.1-0.7-2-1.2l-6.9-3.4c-1.5-0.7-2.6-1.3-3.3-1.8c-0.7-0.5-1.2-1.1-1.5-1.9
			c-0.3-0.8-0.4-1.8-0.4-3L47.4,8c0-5.4,3-8,8.8-8l4.6,0c5.8,0.1,8.7,2.8,8.7,8.1l0,3.7L62.1,11.8z"/>
	</g>
	<polygon id="X_4_" fill="#FFFFFF" points="44.6,46.7 37.9,46.7 34,28.9 33.9,28.9 29.2,46.7 22.8,46.7 29.4,23.1 22.8,0 29.6,0 
		33.9,17.2 34,17.2 38.3,0 44.7,0 38.6,23.1 	"/>
	<polygon id="F_4_" fill="#FFFFFF" points="16.4,19.5 16.4,25.4 7.3,25.4 7.3,46.7 0,46.7 0,0 19,0 20.6,5.8 7.3,5.8 7.3,19.5 	"/>
</g>
</svg>
