<?xml version="1.0" encoding="utf-8"?>
<!-- Generator: Adobe Illustrator 19.1.0, SVG Export Plug-In . SVG Version: 6.00 Build 0)  -->
<svg version="1.1" id="Capa_1" xmlns="http://www.w3.org/2000/svg" xmlns:xlink="http://www.w3.org/1999/xlink" x="0px" y="0px"
	 viewBox="0 0 111 25" style="enable-background:new 0 0 111 25;" xml:space="preserve">
<style type="text/css">
	.st0{fill:#F1891D;}
	.st1{fill:#FFFFFF;}
</style>
<g>
	<g>
		<g>
			<g>
				<polygon id="T_2_" class="st0" points="95.1,3.8 95.1,24.4 91.4,24.4 91.4,3.8 87.8,3.8 87.8,0.9 98.8,0.9 98.8,3.8 				"/>
				<polygon id="E_2_" class="st0" points="74.9,24.4 74.9,0.9 86,0.9 86,3.8 78.6,3.8 78.6,10.7 83.2,10.7 83.2,13.6 78.6,13.6 
					78.6,21.5 86,21.5 86,24.4 				"/>
				<polygon id="E_1_" class="st0" points="61.9,24.4 61.9,0.9 73,0.9 73,3.8 65.6,3.8 65.6,10.7 70.3,10.7 70.3,13.6 65.6,13.6 
					65.6,21.5 73,21.5 73,24.4 				"/>
				<g id="R_1_">
					<path class="st0" d="M52.6,12.2h2.2c1.1,0,1.5-0.5,1.5-1.7V5.4c0-1.1-0.4-1.6-1.5-1.6h-2.2V12.2z M48.9,0.9h7
						c2.7,0,4.1,1.3,4.1,4v5.8c0,2.1-0.7,3.4-2.1,3.9l2.5,9.8h-3.5l-2.3-9.5h-2v9.5h-3.7V0.9z"/>
				</g>
				<polygon id="T_1_" class="st0" points="43.6,3.8 43.6,24.4 39.9,24.4 39.9,3.8 36.2,3.8 36.2,0.9 47.3,0.9 47.3,3.8 				"/>
				<g id="S_1_">
					<path class="st0" d="M31.4,6.8V5.2c0-0.9-0.5-1.3-1.5-1.3h-0.6c-1,0-1.5,0.4-1.5,1.4V9c0,0.4,0.1,0.8,0.3,1
						c0.2,0.2,0.5,0.4,1,0.6l3.4,1.6c0.8,0.4,1.3,0.7,1.6,0.9c0.3,0.2,0.6,0.5,0.7,0.8c0.2,0.3,0.3,0.9,0.3,1.7v5
						c0,2.6-1.5,4-4.4,3.9h-2.2c-2.9,0-4.4-1.5-4.3-4.4v-1.6h3.7v1.6c0,0.9,0.5,1.3,1.6,1.4h0.6c1,0,1.4-0.4,1.4-1.3v-4
						c0-0.4-0.1-0.7-0.3-0.9c-0.2-0.2-0.5-0.4-1-0.6L26.6,13c-0.8-0.4-1.3-0.7-1.6-0.9c-0.3-0.2-0.6-0.6-0.7-0.9
						c-0.1-0.4-0.2-0.9-0.2-1.5V4.9c0-2.7,1.5-4,4.4-4h2.3c2.9,0,4.4,1.4,4.3,4.1v1.9L31.4,6.8z"/>
				</g>
				<polygon id="X_1_" class="st1" points="22.8,24.2 19.3,24.2 17.4,15.3 17.3,15.3 15.1,24.2 11.8,24.2 15.1,12.4 11.8,0.8 
					15.2,0.8 17.3,9.5 17.4,9.5 19.6,0.8 22.8,0.8 19.8,12.4 				"/>
				<polygon id="F_1_" class="st1" points="8.6,10.6 8.6,13.5 4.1,13.5 4.1,24.2 0.4,24.2 0.4,0.8 9.9,0.8 10.8,3.8 4.1,3.8 
					4.1,10.6 				"/>
			</g>
		</g>
	</g>
	<g>
		<path class="st1" d="M110.5,24.2h-6.8v-2.3c0-0.8,0.2-1.4,0.5-1.9c0.3-0.5,0.8-0.7,1.4-0.7c0.3,0,0.6,0.1,0.8,0.3
			c0.2,0.2,0.4,0.4,0.6,0.7c0.1-0.4,0.3-0.7,0.6-0.9c0.3-0.2,0.6-0.3,1-0.3c0.7,0,1.2,0.2,1.5,0.6c0.3,0.4,0.5,1,0.5,1.8L110.5,24.2
			L110.5,24.2z M106.5,22.8v-1c0-0.4-0.1-0.6-0.2-0.8c-0.1-0.2-0.4-0.3-0.7-0.3c-0.3,0-0.5,0.1-0.7,0.3c-0.2,0.2-0.2,0.5-0.2,0.9
			v0.9H106.5z M107.5,22.8h2v-1.3c0-0.4-0.1-0.6-0.2-0.8c-0.2-0.2-0.4-0.3-0.7-0.3c-0.3,0-0.6,0.1-0.8,0.2c-0.2,0.1-0.3,0.4-0.3,0.8
			V22.8z"/>
		<path class="st1" d="M107.5,13.4v2.8h2v-3.3h1.1v4.7h-6.8V13h1.1v3.3h1.7v-2.8h0.9V13.4z"/>
		<path class="st1" d="M104.7,6.5v1.9h5.8v1.4h-5.8v1.9h-1.1V6.5L104.7,6.5L104.7,6.5z"/>
		<path class="st1" d="M109,2.2v2.4l1.5,0.5v1.4l-6.8-2.4V2.7l6.8-2.3v1.4L109,2.2z M107.9,4.3V2.5l-2.7,0.8l0,0L107.9,4.3z"/>
	</g>
</g>
</svg>
